<svg width="216" height="64" viewBox="0 0 216 64" fill="none" xmlns="http://www.w3.org/2000/svg">
<path d="M208 0H8C3.58172 0 0 3.58172 0 8V56C0 60.4183 3.58172 64 8 64H208C212.418 64 216 60.4183 216 56V8C216 3.58172 212.418 0 208 0Z" fill="black"/>
<path d="M208 1.28C209.782 1.28 211.492 1.988 212.752 3.24824C214.012 4.50849 214.72 6.21775 214.72 8V56C214.72 57.7823 214.012 59.4915 212.752 60.7518C211.492 62.012 209.782 62.72 208 62.72H8C6.21775 62.72 4.50849 62.012 3.24824 60.7518C1.988 59.4915 1.28 57.7823 1.28 56V8C1.28 6.21775 1.988 4.50849 3.24824 3.24824C4.50849 1.988 6.21775 1.28 8 1.28H208ZM208 0H8C5.87827 0 3.84344 0.842855 2.34315 2.34315C0.842855 3.84344 0 5.87827 0 8V56C0 58.1217 0.842855 60.1566 2.34315 61.6569C3.84344 63.1571 5.87827 64 8 64H208C210.122 64 212.157 63.1571 213.657 61.6569C215.157 60.1566 216 58.1217 216 56V8C216 5.87827 215.157 3.84344 213.657 2.34315C212.157 0.842855 210.122 0 208 0Z" fill="#A6A6A6"/>
<path d="M51.3806 30.9008C51.3364 25.9874 55.4037 23.597 55.5897 23.4857C53.2862 20.1272 49.7159 19.6684 48.4612 19.6318C45.4625 19.3162 42.5538 21.4261 41.0263 21.4261C39.4682 21.4261 37.116 19.6623 34.5807 19.7141C31.3183 19.7644 28.2663 21.6532 26.5924 24.5864C23.1379 30.5669 25.7143 39.3556 29.024 44.1898C30.6796 46.5573 32.6141 49.2008 35.1463 49.1078C37.6236 49.0056 38.549 47.5284 41.5385 47.5284C44.5006 47.5284 45.3695 49.1078 47.952 49.0483C50.6107 49.0056 52.2846 46.6701 53.8823 44.2812C55.7955 41.5677 56.5639 38.8952 56.5944 38.758C56.5319 38.7367 51.4309 36.7899 51.3806 30.9008Z" fill="white"/>
<path d="M46.5023 16.4516C47.8347 14.7854 48.7463 12.5185 48.4932 10.218C46.5648 10.3034 44.153 11.5519 42.7642 13.1816C41.5355 14.6177 40.4378 16.9715 40.7214 19.1851C42.8877 19.3466 45.1119 18.092 46.5023 16.4516Z" fill="white"/>
<path d="M87.2317 48.7676H83.7695L81.8731 42.8084H75.2812L73.4746 48.7676H70.104L76.6349 28.4797H80.6687L87.2317 48.7676ZM81.3014 40.3082L79.5863 35.0106C79.4049 34.4694 79.065 33.1949 78.5634 31.1887H78.5024C78.3027 32.0516 77.981 33.326 77.5389 35.0106L75.8544 40.3082H81.3014Z" fill="white"/>
<path d="M104.027 41.2732C104.027 43.7612 103.354 45.7278 102.01 47.1715C100.805 48.4566 99.3098 49.0984 97.5246 49.0984C95.5976 49.0984 94.2134 48.4063 93.3703 47.0221H93.3094V54.7284H90.0592V38.9545C90.0592 37.3903 90.018 35.785 89.9387 34.1386H92.7971L92.9786 36.4573H93.0395C94.1234 34.7103 95.7684 33.8383 97.9758 33.8383C99.7016 33.8383 101.142 34.5197 102.295 35.8841C103.45 37.2501 104.027 39.0459 104.027 41.2732ZM100.715 41.3921C100.715 39.9682 100.395 38.7944 99.7519 37.8705C99.0491 36.9071 98.1054 36.4253 96.9224 36.4253C96.1205 36.4253 95.3918 36.6936 94.7409 37.2226C94.0884 37.7562 93.6615 38.4529 93.4618 39.3158C93.3612 39.7182 93.3109 40.0475 93.3109 40.3067V42.7459C93.3109 43.81 93.6371 44.7079 94.2896 45.4412C94.9421 46.1744 95.7897 46.5403 96.8325 46.5403C98.0566 46.5403 99.0094 46.0677 99.6909 45.1256C100.374 44.1819 100.715 42.938 100.715 41.3921Z" fill="white"/>
<path d="M120.853 41.2732C120.853 43.7612 120.18 45.7278 118.834 47.1715C117.631 48.4566 116.136 49.0984 114.351 49.0984C112.424 49.0984 111.04 48.4063 110.198 47.0221H110.137V54.7284H106.887V38.9545C106.887 37.3903 106.846 35.785 106.766 34.1386H109.625L109.806 36.4573H109.867C110.95 34.7103 112.594 33.8383 114.803 33.8383C116.528 33.8383 117.968 34.5197 119.124 35.8841C120.275 37.2501 120.853 39.0459 120.853 41.2732ZM117.541 41.3921C117.541 39.9682 117.22 38.7944 116.576 37.8705C115.874 36.9071 114.933 36.4253 113.749 36.4253C112.945 36.4253 112.218 36.6936 111.565 37.2226C110.913 37.7562 110.488 38.4529 110.288 39.3158C110.189 39.7182 110.137 40.0475 110.137 40.3067V42.7459C110.137 43.81 110.463 44.7079 111.113 45.4412C111.765 46.1729 112.613 46.5403 113.659 46.5403C114.883 46.5403 115.836 46.0677 116.517 45.1256C117.2 44.1819 117.541 42.938 117.541 41.3921Z" fill="white"/>
<path d="M139.665 43.0783C139.665 44.804 139.066 46.208 137.863 47.292C136.541 48.4765 134.701 49.068 132.337 49.068C130.154 49.068 128.404 48.6472 127.079 47.8042L127.832 45.0952C129.259 45.958 130.825 46.391 132.53 46.391C133.755 46.391 134.707 46.1135 135.392 45.5617C136.073 45.0098 136.413 44.2689 136.413 43.3451C136.413 42.5218 136.133 41.8282 135.57 41.2657C135.011 40.7031 134.076 40.1802 132.771 39.697C129.219 38.3722 127.445 36.4315 127.445 33.8795C127.445 32.2117 128.067 30.8442 129.312 29.7801C130.553 28.7145 132.209 28.1825 134.279 28.1825C136.125 28.1825 137.659 28.5041 138.883 29.146L138.07 31.7955C136.927 31.1735 135.634 30.8625 134.188 30.8625C133.044 30.8625 132.151 31.1446 131.511 31.7056C130.969 32.2071 130.698 32.8185 130.698 33.5426C130.698 34.3445 131.007 35.0076 131.629 35.529C132.171 36.0107 133.154 36.5321 134.581 37.0946C136.326 37.7974 137.609 38.6191 138.433 39.5613C139.255 40.5004 139.665 41.6757 139.665 43.0783Z" fill="white"/>
<path d="M150.411 36.5778H146.829V43.6804C146.829 45.4869 147.46 46.3894 148.725 46.3894C149.306 46.3894 149.788 46.3391 150.169 46.2385L150.259 48.7067C149.618 48.946 148.775 49.0665 147.731 49.0665C146.447 49.0665 145.444 48.6747 144.72 47.8926C143.999 47.109 143.636 45.7949 143.636 43.9487V36.5748H141.502V34.1356H143.636V31.4571L146.829 30.4936V34.1356H150.411V36.5778Z" fill="white"/>
<path d="M166.575 41.3328C166.575 43.5815 165.932 45.4276 164.648 46.8713C163.302 48.3577 161.515 49.0986 159.288 49.0986C157.142 49.0986 155.433 48.3867 154.158 46.9628C152.884 45.5389 152.247 43.7415 152.247 41.5752C152.247 39.3083 152.902 37.4515 154.218 36.0078C155.53 34.5626 157.302 33.84 159.529 33.84C161.676 33.84 163.403 34.5519 164.706 35.9773C165.953 37.36 166.575 39.1452 166.575 41.3328ZM163.203 41.438C163.203 40.0889 162.915 38.9318 162.331 37.9668C161.65 36.799 160.675 36.2166 159.413 36.2166C158.107 36.2166 157.114 36.8005 156.433 37.9668C155.849 38.9333 155.561 40.1087 155.561 41.499C155.561 42.8482 155.849 44.0053 156.433 44.9687C157.136 46.1365 158.117 46.7189 159.384 46.7189C160.625 46.7189 161.599 46.1243 162.302 44.9383C162.901 43.955 163.203 42.7857 163.203 41.438Z" fill="white"/>
<path d="M177.14 36.997C176.818 36.9376 176.475 36.9071 176.115 36.9071C174.972 36.9071 174.088 37.3385 173.466 38.2029C172.925 38.9651 172.653 39.9286 172.653 41.0918V48.7676H169.404L169.435 38.7456C169.435 37.0595 169.394 35.5244 169.313 34.1401H172.144L172.263 36.9391H172.353C172.696 35.9771 173.237 35.2027 173.978 34.6219C174.702 34.099 175.484 33.8383 176.327 33.8383C176.627 33.8383 176.899 33.8596 177.14 33.8977V36.997Z" fill="white"/>
<path d="M191.676 40.7611C191.676 41.3434 191.638 41.8343 191.557 42.2353H181.806C181.844 43.6805 182.315 44.7857 183.221 45.548C184.043 46.2294 185.105 46.5709 186.41 46.5709C187.854 46.5709 189.171 46.3407 190.355 45.8788L190.865 48.135C189.48 48.7387 187.846 49.0391 185.96 49.0391C183.692 49.0391 181.911 48.3713 180.615 47.0374C179.323 45.7035 178.675 43.9122 178.675 41.6651C178.675 39.4592 179.277 37.6222 180.483 36.1571C181.745 34.593 183.451 33.8109 185.598 33.8109C187.706 33.8109 189.302 34.593 190.386 36.1571C191.244 37.3996 191.676 38.9363 191.676 40.7611ZM188.576 39.918C188.598 38.9546 188.386 38.1222 187.945 37.4194C187.383 36.5154 186.518 36.0641 185.355 36.0641C184.293 36.0641 183.428 36.5047 182.768 37.3889C182.227 38.0917 181.905 38.9347 181.806 39.9165H188.576V39.918Z" fill="white"/>
<path d="M81.7562 23.5219H80.0656V21H73.3101V23.5219H71.5913L71.5349 19.577H72.3591C72.7677 19.1826 73.0941 18.6096 73.3383 17.8582C73.5825 17.1021 73.7398 16.2474 73.8102 15.2941L74.0779 10.7435H80.5446V19.577H81.8478L81.7562 23.5219ZM74.3738 19.577H78.7694V12.1805H75.7756L75.6065 15.0687C75.4797 16.9988 75.0688 18.5016 74.3738 19.577Z" fill="white"/>
<path d="M83.4215 17.1186C83.4215 16.3719 83.5694 15.7003 83.8653 15.1039C84.1611 14.5028 84.5768 14.0426 85.1121 13.7232C85.6475 13.3992 86.2627 13.2372 86.9577 13.2372C87.9862 13.2372 88.8198 13.5682 89.4585 14.2304C90.1019 14.8926 90.4494 15.7708 90.501 16.865L90.5081 17.2665C90.5081 18.0179 90.3625 18.6895 90.0713 19.2812C89.7849 19.8729 89.3716 20.3308 88.8315 20.6548C88.2962 20.9789 87.6763 21.1409 86.9718 21.1409C85.8964 21.1409 85.0346 20.784 84.3866 20.0701C83.7432 19.3516 83.4215 18.3959 83.4215 17.2031V17.1186ZM85.1333 17.2665C85.1333 18.0508 85.2953 18.666 85.6193 19.1121C85.9434 19.5536 86.3942 19.7743 86.9718 19.7743C87.5495 19.7743 87.9979 19.5489 88.3173 19.098C88.6413 18.6472 88.8033 17.9874 88.8033 17.1186C88.8033 16.3484 88.6366 15.7379 88.3032 15.2871C87.9745 14.8362 87.526 14.6108 86.9577 14.6108C86.3989 14.6108 85.9551 14.8339 85.6264 15.28C85.2976 15.7215 85.1333 16.3836 85.1333 17.2665Z" fill="white"/>
<path d="M95.8082 19.7743C96.2356 19.7743 96.5901 19.6498 96.8719 19.4009C97.1537 19.152 97.304 18.8444 97.3227 18.4781H98.9359C98.9171 18.9524 98.7692 19.3962 98.4921 19.8095C98.215 20.2181 97.8393 20.5421 97.365 20.7816C96.8907 21.0211 96.3788 21.1409 95.8293 21.1409C94.7633 21.1409 93.918 20.7957 93.2934 20.1054C92.6688 19.415 92.3565 18.4617 92.3565 17.2454V17.0693C92.3565 15.9093 92.6665 14.9818 93.2864 14.2868C93.9062 13.587 94.7516 13.2372 95.8223 13.2372C96.7287 13.2372 97.466 13.5025 98.0342 14.0332C98.6072 14.5591 98.9077 15.2518 98.9359 16.1112H97.3227C97.304 15.6745 97.1537 15.3152 96.8719 15.0335C96.5948 14.7517 96.2403 14.6108 95.8082 14.6108C95.2541 14.6108 94.8267 14.8127 94.5261 15.2166C94.2256 15.6158 94.073 16.2239 94.0683 17.0411V17.3158C94.0683 18.1423 94.2162 18.7599 94.5121 19.1685C94.8126 19.5723 95.2447 19.7743 95.8082 19.7743Z" fill="white"/>
<path d="M106.948 14.7376H104.476V21H102.764V14.7376H100.319V13.378H106.948V14.7376Z" fill="white"/>
<path d="M111.565 18.5486L113.115 13.378H114.939L111.91 22.1553C111.445 23.4373 110.656 24.0784 109.543 24.0784C109.294 24.0784 109.02 24.0361 108.719 23.9516V22.6272L109.043 22.6484C109.475 22.6484 109.799 22.5685 110.015 22.4089C110.236 22.2539 110.41 21.9909 110.536 21.6199L110.783 20.9648L108.106 13.378H109.952L111.565 18.5486Z" fill="white"/>
<path d="M123.113 21H121.402V14.7587H118.429V21H116.717V13.378H123.113V21Z" fill="white"/>
<path d="M132.112 21H130.4V17.9216H127.434V21H125.723V13.378H127.434V16.555H130.4V13.378H132.112V21Z" fill="white"/>
<path d="M134.341 17.1186C134.341 16.3719 134.489 15.7003 134.784 15.1039C135.08 14.5028 135.496 14.0426 136.031 13.7232C136.567 13.3992 137.182 13.2372 137.877 13.2372C138.905 13.2372 139.739 13.5682 140.378 14.2304C141.021 14.8926 141.368 15.7708 141.42 16.865L141.427 17.2665C141.427 18.0179 141.282 18.6895 140.99 19.2812C140.704 19.8729 140.291 20.3308 139.751 20.6548C139.215 20.9789 138.595 21.1409 137.891 21.1409C136.816 21.1409 135.954 20.784 135.306 20.0701C134.662 19.3516 134.341 18.3959 134.341 17.2031V17.1186ZM136.052 17.2665C136.052 18.0508 136.214 18.666 136.538 19.1121C136.862 19.5536 137.313 19.7743 137.891 19.7743C138.469 19.7743 138.917 19.5489 139.236 19.098C139.56 18.6472 139.722 17.9874 139.722 17.1186C139.722 16.3484 139.556 15.7379 139.222 15.2871C138.894 14.8362 138.445 14.6108 137.877 14.6108C137.318 14.6108 136.874 14.8339 136.545 15.28C136.217 15.7215 136.052 16.3836 136.052 17.2665Z" fill="white"/>
<path d="M148.04 21V13.378H151.133C152.175 13.378 152.969 13.5612 153.514 13.9275C154.059 14.2891 154.331 14.8104 154.331 15.4913C154.331 15.8436 154.221 16.1605 154 16.4423C153.784 16.7194 153.462 16.9331 153.035 17.0834C153.533 17.1867 153.927 17.3957 154.218 17.7103C154.509 18.0249 154.655 18.3959 154.655 18.8233C154.655 19.5324 154.392 20.0725 153.866 20.4435C153.345 20.8145 152.593 21 151.612 21H148.04ZM149.752 17.7526V19.6475H151.626C152.504 19.6475 152.943 19.3328 152.943 18.7035C152.943 18.0696 152.497 17.7526 151.605 17.7526H149.752ZM149.752 16.5269H151.161C152.133 16.5269 152.619 16.2404 152.619 15.6674C152.619 15.0663 152.159 14.7564 151.239 14.7376H149.752V16.5269Z" fill="white"/>
</svg>
