<svg width="216" height="64" viewBox="0 0 216 64" fill="none" xmlns="http://www.w3.org/2000/svg">
<path d="M208 0H8C3.58172 0 0 3.58172 0 8V56C0 60.4183 3.58172 64 8 64H208C212.418 64 216 60.4183 216 56V8C216 3.58172 212.418 0 208 0Z" fill="black"/>
<path d="M208 1.28C209.782 1.28 211.492 1.988 212.752 3.24824C214.012 4.50849 214.72 6.21775 214.72 8V56C214.72 57.7823 214.012 59.4915 212.752 60.7518C211.492 62.012 209.782 62.72 208 62.72H8C6.21775 62.72 4.50849 62.012 3.24824 60.7518C1.988 59.4915 1.28 57.7823 1.28 56V8C1.28 6.21775 1.988 4.50849 3.24824 3.24824C4.50849 1.988 6.21775 1.28 8 1.28H208ZM208 0H8C5.87827 0 3.84344 0.842855 2.34315 2.34315C0.842855 3.84344 0 5.87827 0 8V56C0 58.1217 0.842855 60.1566 2.34315 61.6569C3.84344 63.1571 5.87827 64 8 64H208C210.122 64 212.157 63.1571 213.657 61.6569C215.157 60.1566 216 58.1217 216 56V8C216 5.87827 215.157 3.84344 213.657 2.34315C212.157 0.842855 210.122 0 208 0Z" fill="#A6A6A6"/>
<path d="M109.024 34.8C107.68 34.8063 106.369 35.2105 105.255 35.9615C104.141 36.7126 103.274 37.7768 102.764 39.0199C102.255 40.2629 102.125 41.6292 102.391 42.9461C102.657 44.2631 103.307 45.4717 104.259 46.4195C105.211 47.3673 106.423 48.0118 107.741 48.2716C109.059 48.5314 110.425 48.3949 111.666 47.8793C112.906 47.3637 113.966 46.4921 114.712 45.3745C115.458 44.257 115.856 42.9436 115.856 41.6C115.869 40.7007 115.701 39.808 115.362 38.975C115.023 38.142 114.519 37.3857 113.882 36.7512C113.245 36.1168 112.486 35.617 111.651 35.2818C110.817 34.9466 109.923 34.7828 109.024 34.8ZM109.024 45.728C108.198 45.7858 107.373 45.5937 106.658 45.1766C105.942 44.7596 105.368 44.1369 105.011 43.3895C104.654 42.6421 104.53 41.8046 104.655 40.9859C104.781 40.1671 105.149 39.4049 105.714 38.7985C106.278 38.192 107.011 37.7693 107.819 37.5853C108.626 37.4012 109.471 37.4644 110.242 37.7666C111.013 38.0687 111.676 38.5959 112.143 39.2795C112.611 39.9632 112.862 40.7717 112.864 41.6C112.89 42.1248 112.81 42.6495 112.63 43.1431C112.45 43.6367 112.173 44.0892 111.815 44.4739C111.457 44.8586 111.025 45.1678 110.546 45.3832C110.067 45.5986 109.549 45.7158 109.024 45.728ZM94.128 34.8C92.7838 34.8032 91.4707 35.2047 90.3545 35.9538C89.2384 36.7029 88.3693 37.766 87.8571 39.0088C87.3448 40.2517 87.2124 41.6184 87.4766 42.9364C87.7408 44.2544 88.3897 45.4646 89.3413 46.414C90.293 47.3634 91.5046 48.0094 92.8233 48.2705C94.1419 48.5316 95.5083 48.396 96.7499 47.8809C97.9916 47.3657 99.0526 46.4941 99.7991 45.3762C100.546 44.2583 100.944 42.9443 100.944 41.6C100.957 40.7007 100.789 39.808 100.45 38.975C100.111 38.142 99.6075 37.3857 98.97 36.7512C98.3326 36.1168 97.574 35.617 96.7394 35.2818C95.9048 34.9466 95.0112 34.7828 94.112 34.8H94.128ZM94.128 45.728C93.3013 45.7891 92.4754 45.5998 91.7578 45.1849C91.0402 44.77 90.4641 44.1487 90.1046 43.4018C89.745 42.6549 89.6187 41.8171 89.7419 40.9973C89.8652 40.1776 90.2324 39.414 90.7957 38.8059C91.359 38.1978 92.0924 37.7734 92.9003 37.5879C93.7082 37.4024 94.5532 37.4644 95.3254 37.7659C96.0975 38.0674 96.7611 38.5944 97.2295 39.2782C97.698 39.9621 97.9498 40.7711 97.952 41.6C97.9778 42.1248 97.8982 42.6495 97.718 43.1431C97.5378 43.6367 97.2605 44.0892 96.9026 44.4739C96.5448 44.8586 96.1135 45.1678 95.6342 45.3832C95.1549 45.5986 94.6373 45.7158 94.112 45.728H94.128ZM76.384 36.896V39.776H83.296C83.1876 41.1325 82.6238 42.4125 81.696 43.408C81.0045 44.1124 80.1732 44.6642 79.2556 45.028C78.3379 45.3917 77.3543 45.5593 76.368 45.52C74.3312 45.52 72.3777 44.7109 70.9374 43.2706C69.4972 41.8303 68.688 39.8769 68.688 37.84C68.688 35.8032 69.4972 33.8497 70.9374 32.4094C72.3777 30.9692 74.3312 30.16 76.368 30.16C78.3165 30.1282 80.198 30.8705 81.6 32.224L83.632 30.192C82.6856 29.2337 81.5564 28.475 80.3114 27.9611C79.0664 27.4471 77.7309 27.1883 76.384 27.2C74.9616 27.1447 73.5427 27.377 72.2122 27.8832C70.8818 28.3893 69.6672 29.1588 68.6412 30.1456C67.6153 31.1324 66.7991 32.3162 66.2416 33.6259C65.6841 34.9357 65.3967 36.3445 65.3967 37.768C65.3967 39.1915 65.6841 40.6003 66.2416 41.9101C66.7991 43.2199 67.6153 44.4036 68.6412 45.3904C69.6672 46.3772 70.8818 47.1467 72.2122 47.6529C73.5427 48.159 74.9616 48.3914 76.384 48.336C77.7535 48.3979 79.1204 48.1658 80.3927 47.6552C81.665 47.1446 82.8132 46.3675 83.76 45.376C85.4363 43.5343 86.3313 41.1132 86.256 38.624C86.2612 38.0176 86.2076 37.4121 86.096 36.816L76.384 36.896ZM148.88 39.136C148.463 37.9084 147.682 36.8365 146.642 36.0622C145.602 35.2879 144.352 34.8477 143.056 34.8C142.181 34.7983 141.315 34.9761 140.511 35.3225C139.707 35.6688 138.983 36.1763 138.383 36.8137C137.783 37.451 137.32 38.2046 137.023 39.0278C136.726 39.8511 136.601 40.7265 136.656 41.6C136.637 42.4943 136.798 43.3833 137.129 44.2139C137.461 45.0446 137.957 45.7998 138.587 46.4345C139.218 47.0693 139.969 47.5704 140.798 47.9081C141.626 48.2458 142.514 48.4131 143.408 48.4C144.527 48.4061 145.63 48.1344 146.619 47.6095C147.607 47.0845 148.45 46.3226 149.072 45.392L146.752 43.792C146.406 44.3693 145.916 44.8467 145.329 45.1777C144.743 45.5086 144.081 45.6817 143.408 45.68C142.715 45.7064 142.03 45.5237 141.442 45.1556C140.854 44.7875 140.391 44.2511 140.112 43.616L149.216 39.856L148.88 39.136ZM139.6 41.408C139.568 40.9131 139.634 40.4167 139.796 39.9479C139.958 39.4791 140.212 39.0473 140.542 38.6778C140.873 38.3082 141.274 38.0084 141.722 37.7959C142.171 37.5834 142.657 37.4624 143.152 37.44C143.668 37.406 144.183 37.5244 144.632 37.7804C145.082 38.0364 145.446 38.4187 145.68 38.88L139.6 41.408ZM132.208 48H135.2V28H132.208V48ZM127.312 36.32H127.2C126.749 35.8159 126.197 35.4127 125.579 35.137C124.961 34.8612 124.292 34.7191 123.616 34.72C121.868 34.8048 120.219 35.5591 119.011 36.8266C117.804 38.094 117.13 39.7775 117.13 41.528C117.13 43.2786 117.804 44.962 119.011 46.2295C120.219 47.4969 121.868 48.2512 123.616 48.336C124.294 48.3474 124.966 48.2101 125.586 47.9336C126.205 47.6572 126.756 47.2484 127.2 46.736H127.296V47.712C127.296 50.32 125.904 51.712 123.664 51.712C122.918 51.6946 122.194 51.4555 121.584 51.0252C120.974 50.595 120.507 49.9931 120.24 49.296L117.632 50.384C118.123 51.5782 118.959 52.5985 120.034 53.314C121.109 54.0296 122.373 54.4077 123.664 54.4C127.168 54.4 130.064 52.336 130.064 47.312V35.2H127.312V36.32ZM123.888 45.728C122.856 45.6371 121.895 45.1628 121.196 44.3987C120.496 43.6346 120.108 42.6361 120.108 41.6C120.108 40.5639 120.496 39.5654 121.196 38.8013C121.895 38.0372 122.856 37.563 123.888 37.472C124.4 37.4983 124.901 37.6267 125.362 37.8497C125.824 38.0727 126.236 38.3857 126.574 38.7704C126.913 39.1551 127.171 39.6036 127.333 40.0896C127.496 40.5756 127.559 41.0891 127.52 41.6C127.564 42.1131 127.503 42.6298 127.341 43.1187C127.179 43.6076 126.92 44.0586 126.579 44.4445C126.238 44.8304 125.822 45.1431 125.357 45.3637C124.892 45.5843 124.387 45.7082 123.872 45.728H123.888ZM162.896 28H155.744V48H158.736V40.416H162.912C163.765 40.4773 164.621 40.3622 165.427 40.078C166.234 39.7938 166.973 39.3465 167.598 38.764C168.224 38.1815 168.723 37.4764 169.065 36.6926C169.406 35.9087 169.582 35.0629 169.582 34.208C169.582 33.3531 169.406 32.5073 169.065 31.7235C168.723 30.9396 168.224 30.2345 167.598 29.652C166.973 29.0696 166.234 28.6223 165.427 28.3381C164.621 28.0538 163.765 27.9388 162.912 28H162.896ZM162.896 37.6H158.72V30.784H162.96C163.87 30.784 164.743 31.1456 165.387 31.7892C166.03 32.4329 166.392 33.3058 166.392 34.216C166.392 35.1262 166.03 35.9992 165.387 36.6428C164.743 37.2864 163.87 37.648 162.96 37.648L162.896 37.6ZM181.344 34.72C180.255 34.6549 179.17 34.9095 178.224 35.4524C177.277 35.9953 176.51 36.8029 176.016 37.776L178.672 38.88C178.934 38.3974 179.33 38.0013 179.813 37.7399C180.296 37.4786 180.845 37.3633 181.392 37.408C181.772 37.3637 182.157 37.3954 182.524 37.5013C182.892 37.6073 183.234 37.7854 183.532 38.0252C183.83 38.2649 184.077 38.5617 184.259 38.898C184.441 39.2343 184.554 39.6035 184.592 39.984V40.192C183.631 39.6832 182.559 39.4194 181.472 39.424C178.608 39.424 175.712 41.024 175.712 43.92C175.74 44.5375 175.892 45.1431 176.158 45.7009C176.425 46.2587 176.8 46.7575 177.263 47.1677C177.725 47.5779 178.265 47.8912 178.851 48.0892C179.436 48.2871 180.056 48.3656 180.672 48.32C181.425 48.3741 182.18 48.2244 182.855 47.8866C183.531 47.5487 184.103 47.0353 184.512 46.4H184.608V48H187.488V40.304C187.488 36.8 184.832 34.768 181.424 34.768L181.344 34.72ZM180.976 45.68C180 45.68 178.64 45.184 178.64 43.984C178.64 42.384 180.336 41.856 181.84 41.856C182.791 41.8326 183.73 42.0646 184.56 42.528C184.46 43.3943 184.05 44.1952 183.406 44.7832C182.762 45.3712 181.928 45.7068 181.056 45.728L180.976 45.68ZM197.984 35.2L194.56 43.872H194.464L190.912 35.2H187.712L193.04 47.328L190 54.064H193.12L201.312 35.2H197.984ZM171.088 48H174.08V28H171.088V48Z" fill="white"/>
<path d="M67.3762 22.832H66.1922V19.632H67.2002C67.6598 19.145 68.007 18.563 68.2171 17.9271C68.4272 17.2912 68.4952 16.617 68.4162 15.952V11.2H74.8162V19.616H75.8882V22.816H74.7042V20.8H67.3762V22.832ZM69.6002 16C69.6749 17.2906 69.3569 18.5736 68.6882 19.68H73.4882V12.384H69.6002V16ZM85.4562 19.552C84.5209 20.4822 83.2554 21.0043 81.9362 21.0043C80.6171 21.0043 79.3516 20.4822 78.4162 19.552C77.5071 18.5896 77.0006 17.3159 77.0006 15.992C77.0006 14.6681 77.5071 13.3944 78.4162 12.432C78.8773 11.9676 79.4256 11.599 80.0298 11.3475C80.6339 11.096 81.2818 10.9665 81.9362 10.9665C82.5906 10.9665 83.2386 11.096 83.8427 11.3475C84.4468 11.599 84.9952 11.9676 85.4562 12.432C86.369 13.3925 86.8779 14.667 86.8779 15.992C86.8779 17.3171 86.369 18.5915 85.4562 19.552ZM79.3282 18.752C80.0209 19.4418 80.9587 19.8291 81.9362 19.8291C82.9138 19.8291 83.8515 19.4418 84.5442 18.752C85.2278 17.9984 85.6065 17.0174 85.6065 16C85.6065 14.9826 85.2278 14.0016 84.5442 13.248C83.8515 12.5582 82.9138 12.1709 81.9362 12.1709C80.9587 12.1709 80.0209 12.5582 79.3282 13.248C78.6446 14.0016 78.266 14.9826 78.266 16C78.266 17.0174 78.6446 17.9984 79.3282 18.752ZM93.0882 21.008C92.4277 21.0211 91.7714 20.9005 91.1587 20.6532C90.5461 20.406 89.9898 20.0373 89.5234 19.5694C89.057 19.1015 88.6901 18.5441 88.4448 17.9306C88.1996 17.3172 88.081 16.6605 88.0962 16C88.081 15.3395 88.1996 14.6828 88.4448 14.0694C88.6901 13.4559 89.057 12.8985 89.5234 12.4306C89.9898 11.9627 90.5461 11.594 91.1587 11.3468C91.7714 11.0996 92.4277 10.9789 93.0882 10.992C93.7577 10.9754 94.4222 11.1108 95.0319 11.3879C95.6416 11.665 96.1805 12.0767 96.6082 12.592L95.7442 13.424C95.4282 13.0228 95.0208 12.7031 94.5559 12.4915C94.0911 12.28 93.5823 12.1828 93.0722 12.208C92.5811 12.1952 92.0925 12.2822 91.636 12.4638C91.1795 12.6453 90.7645 12.9175 90.4162 13.264C89.7225 14.0221 89.3378 15.0124 89.3378 16.04C89.3378 17.0676 89.7225 18.0579 90.4162 18.816C90.7645 19.1625 91.1795 19.4347 91.636 19.6163C92.0925 19.7978 92.5811 19.8848 93.0722 19.872C93.6354 19.867 94.1904 19.7366 94.6968 19.4903C95.2033 19.2439 95.6486 18.8879 96.0002 18.448L96.8642 19.312C96.4288 19.8402 95.8825 20.2662 95.2642 20.56C94.5812 20.8693 93.8379 21.0224 93.0882 21.008ZM101.888 20.8H100.656V12.384H97.9682V11.2H104.56V12.384H101.888V20.8ZM113.04 11.2L109.408 19.296C109.263 19.7749 108.972 20.1969 108.577 20.5035C108.181 20.8102 107.7 20.9865 107.2 21.008C106.87 21.0038 106.543 20.9331 106.24 20.8L106.56 19.664C106.755 19.7772 106.975 19.8379 107.2 19.84C107.435 19.8577 107.67 19.8018 107.872 19.68C108.065 19.5168 108.214 19.3077 108.304 19.072L108.656 18.304L105.456 11.216H106.912L109.28 16.72L111.584 11.2H113.04ZM114.432 20.8V11.2H121.376V20.8H120.144V12.384H115.664V20.8H114.432ZM123.568 20.8V11.2H124.8V15.312H129.6V11.2H130.832V20.8H129.6V16.464H124.8V20.8H123.568ZM140.896 19.552C139.961 20.4822 138.695 21.0043 137.376 21.0043C136.057 21.0043 134.792 20.4822 133.856 19.552C132.947 18.5896 132.441 17.3159 132.441 15.992C132.441 14.6681 132.947 13.3944 133.856 12.432C134.317 11.9676 134.866 11.599 135.47 11.3475C136.074 11.096 136.722 10.9665 137.376 10.9665C138.031 10.9665 138.679 11.096 139.283 11.3475C139.887 11.599 140.435 11.9676 140.896 12.432C141.809 13.3925 142.318 14.667 142.318 15.992C142.318 17.3171 141.809 18.5915 140.896 19.552ZM134.768 18.752C135.461 19.4418 136.399 19.8291 137.376 19.8291C138.354 19.8291 139.292 19.4418 139.984 18.752C140.668 17.9984 141.046 17.0174 141.046 16C141.046 14.9826 140.668 14.0016 139.984 13.248C139.292 12.5582 138.354 12.1709 137.376 12.1709C136.399 12.1709 135.461 12.5582 134.768 13.248C134.085 14.0016 133.706 14.9826 133.706 16C133.706 17.0174 134.085 17.9984 134.768 18.752ZM147.344 20.8V11.2H150.816C151.537 11.1864 152.236 11.4498 152.768 11.936C153.036 12.168 153.249 12.456 153.392 12.7795C153.536 13.1029 153.607 13.4541 153.6 13.808C153.608 14.2345 153.485 14.6531 153.248 15.008C153.013 15.3527 152.686 15.6244 152.304 15.792C152.768 15.9456 153.175 16.2356 153.472 16.624C153.78 17.016 153.944 17.5017 153.936 18C153.944 18.3689 153.871 18.735 153.722 19.0723C153.573 19.4097 153.351 19.7101 153.072 19.952C152.515 20.4659 151.782 20.7465 151.024 20.736L147.344 20.8ZM148.576 15.312H150.816C151.025 15.3207 151.234 15.2837 151.427 15.2036C151.621 15.1235 151.794 15.0021 151.936 14.848C152.078 14.7196 152.192 14.5639 152.272 14.3903C152.353 14.2167 152.397 14.0287 152.403 13.8376C152.409 13.6465 152.376 13.4561 152.307 13.2778C152.238 13.0996 152.134 12.9371 152 12.8C151.867 12.6488 151.701 12.5288 151.516 12.4486C151.331 12.3684 151.13 12.33 150.928 12.336H148.64L148.576 15.312ZM148.576 19.616H151.056C151.273 19.6233 151.489 19.5826 151.688 19.4968C151.887 19.4111 152.065 19.2824 152.208 19.12C152.49 18.8274 152.651 18.4384 152.656 18.032C152.656 17.6077 152.488 17.2007 152.188 16.9006C151.888 16.6006 151.481 16.432 151.056 16.432H148.624L148.576 19.616Z" fill="white"/>
<path fill-rule="evenodd" clip-rule="evenodd" d="M81.9362 11.1265C81.3029 11.1265 80.6759 11.2518 80.0913 11.4952C79.5072 11.7383 78.977 12.0946 78.5312 12.5433C77.6509 13.4758 77.1606 14.7096 77.1606 15.992C77.1606 17.2742 77.6508 18.5079 78.5308 19.4403C79.436 20.3396 80.6602 20.8443 81.9362 20.8443C83.2123 20.8443 84.4366 20.3395 85.3418 19.4402C86.2253 18.5096 86.7179 17.2753 86.7179 15.992C86.7179 14.7086 86.2252 13.4741 85.3414 12.5435C84.8955 12.0946 84.3653 11.7384 83.7812 11.4952C83.1965 11.2518 82.5695 11.1265 81.9362 11.1265ZM79.9683 11.1998C80.5919 10.9401 81.2607 10.8065 81.9362 10.8065C82.6117 10.8065 83.2806 10.9401 83.9042 11.1998C84.5278 11.4594 85.0939 11.8399 85.5698 12.3193L85.5722 12.3218C86.5133 13.312 87.0379 14.6259 87.0379 15.992C87.0379 17.3581 86.5132 18.672 85.5722 19.6622L85.5691 19.6655C84.6037 20.6255 83.2976 21.1643 81.9362 21.1643C80.5748 21.1643 79.2688 20.6254 78.3034 19.6655L78.2999 19.6619C77.3626 18.6699 76.8406 17.3568 76.8406 15.992C76.8406 14.6272 77.3627 13.3142 78.2999 12.3221L78.3026 12.3192C78.7786 11.8399 79.3447 11.4594 79.9683 11.1998ZM137.376 11.1265C136.743 11.1265 136.116 11.2518 135.531 11.4952C134.947 11.7383 134.417 12.0945 133.971 12.5432C133.091 13.4757 132.601 14.7096 132.601 15.992C132.601 17.2742 133.091 18.5079 133.971 19.4403C134.876 20.3396 136.1 20.8443 137.376 20.8443C138.652 20.8443 139.877 20.3395 140.782 19.4401C141.665 18.5095 142.158 17.2752 142.158 15.992C142.158 14.7086 141.665 13.4742 140.781 12.5435C140.336 12.0947 139.805 11.7384 139.221 11.4952C138.637 11.2518 138.01 11.1265 137.376 11.1265ZM135.408 11.1998C136.032 10.9401 136.701 10.8065 137.376 10.8065C138.052 10.8065 138.721 10.9401 139.344 11.1998C139.968 11.4594 140.534 11.8399 141.01 12.3193L141.012 12.3218C141.953 13.3121 142.478 14.6259 142.478 15.992C142.478 17.3581 141.953 18.672 141.012 19.6622L141.009 19.6655C140.044 20.6255 138.738 21.1643 137.376 21.1643C136.015 21.1643 134.709 20.6254 133.743 19.6655L133.74 19.6619C132.803 18.6699 132.281 17.3568 132.281 15.992C132.281 14.6272 132.803 13.3142 133.74 12.3221L133.743 12.3192C134.219 11.8399 134.785 11.4594 135.408 11.1998ZM94.9657 11.5336C94.378 11.2664 93.7375 11.136 93.0922 11.152L93.085 11.1521C92.4461 11.1394 91.8112 11.256 91.2186 11.4952C90.626 11.7343 90.0879 12.0909 89.6367 12.5435C89.1856 12.9961 88.8307 13.5354 88.5934 14.1288C88.3562 14.7222 88.2414 15.3574 88.2562 15.9963L88.2564 16.0037C88.2416 16.6426 88.3562 17.2779 88.5934 17.8712C88.8307 18.4646 89.1856 19.0039 89.6367 19.4565C90.0879 19.9091 90.626 20.2657 91.2186 20.5048C91.8112 20.744 92.4461 20.8607 93.085 20.848L93.0882 21.008L93.0913 20.848C93.8166 20.8619 94.5359 20.714 95.1968 20.4149C95.7497 20.152 96.2429 19.7796 96.6467 19.3207L96.0107 18.6847C95.6639 19.0805 95.2411 19.4035 94.7668 19.6341C94.2394 19.8907 93.6615 20.0266 93.075 20.032C92.5627 20.0451 92.0531 19.9543 91.5769 19.7649C91.1002 19.5754 90.667 19.2912 90.3034 18.9294L90.2981 18.9241C89.5774 18.1366 89.1778 17.1076 89.1778 16.04C89.1778 14.9724 89.5775 13.9436 90.2982 13.156L90.3033 13.1505C90.6669 12.7887 91.1002 12.5046 91.5769 12.3151C92.0516 12.1263 92.5596 12.0354 93.0704 12.0479C93.6039 12.0225 94.1359 12.1246 94.6222 12.3459C95.0567 12.5436 95.4434 12.8314 95.7572 13.1894L96.3883 12.5816C95.9927 12.1374 95.5083 11.7802 94.9657 11.5336ZM93.0883 21.168C92.4072 21.1812 91.7305 21.0565 91.0988 20.8016C90.4662 20.5463 89.8917 20.1656 89.4101 19.6824C88.9284 19.1992 88.5496 18.6235 88.2963 17.99C88.0435 17.3577 87.921 16.6808 87.9362 16C87.921 15.3192 88.0435 14.6423 88.2963 14.01C88.5496 13.3765 88.9284 12.8008 89.4101 12.3176C89.8917 11.8344 90.4662 11.4537 91.0988 11.1984C91.7304 10.9436 92.4069 10.8189 93.0878 10.832C93.7803 10.8154 94.4675 10.9556 95.0981 11.2422C95.7298 11.5294 96.2882 11.9559 96.7313 12.4898L96.8263 12.6042L95.7279 13.6619L95.6185 13.523C95.3183 13.1419 94.9312 12.8381 94.4896 12.6371C94.048 12.4362 93.5647 12.3438 93.0801 12.3678L93.0681 12.3684C92.5986 12.3562 92.1315 12.4389 91.6951 12.6124C91.2598 12.7855 90.8641 13.0448 90.5317 13.3748C89.8666 14.103 89.4978 15.0537 89.4978 16.04C89.4978 17.0264 89.8666 17.977 90.5317 18.7052C90.8641 19.0352 91.2598 19.2945 91.6951 19.4676C92.1315 19.6411 92.5986 19.7243 93.0681 19.7121L93.0708 19.712C93.6102 19.7072 94.1418 19.5823 94.6269 19.3464C95.112 19.1104 95.5384 18.7694 95.8753 18.3481L95.9869 18.2084L97.0801 19.3016L96.9877 19.4138C96.5373 19.9601 95.9724 20.4007 95.3329 20.7045L95.3302 20.7058C94.6265 21.0245 93.8607 21.1824 93.0883 21.168ZM152.66 12.0542C152.158 11.5956 151.499 11.3471 150.819 11.36L150.816 11.36H147.504V20.6372L151.021 20.576L151.026 20.576C151.743 20.586 152.437 20.3205 152.964 19.8344L152.967 19.8312C153.228 19.6046 153.436 19.3235 153.576 19.0076C153.715 18.6917 153.784 18.3489 153.776 18.0035L153.776 17.9976C153.783 17.536 153.631 17.086 153.346 16.7228L153.345 16.7212C153.068 16.3583 152.688 16.0874 152.254 15.9439L151.858 15.813L152.24 15.6455C152.594 15.49 152.898 15.2382 153.115 14.9187C153.334 14.591 153.447 14.2045 153.44 13.8108V13.8049C153.447 13.4744 153.381 13.1465 153.246 12.8444C153.112 12.5424 152.913 12.2735 152.663 12.0568L152.66 12.0542ZM152.875 11.8166C152.313 11.3039 151.575 11.026 150.815 11.04H147.184V20.9628L151.022 20.896L151.025 20.896C151.822 20.9064 152.593 20.6113 153.179 20.0712C153.474 19.8141 153.71 19.4952 153.868 19.1371C154.027 18.7792 154.104 18.3908 154.096 17.9995L154.096 18.0024L153.936 18L154.096 17.9965L154.096 17.9995C154.104 17.4659 153.928 16.9459 153.599 16.526C153.354 16.2061 153.039 15.9489 152.68 15.7731C152.957 15.5993 153.195 15.3699 153.38 15.0981L153.381 15.0968C153.636 14.7157 153.768 14.2662 153.76 13.8081L153.76 13.8111L153.6 13.808L153.76 13.8052L153.76 13.8081C153.767 13.4318 153.692 13.0585 153.539 12.7145C153.386 12.3702 153.159 12.0637 152.875 11.8166ZM68.2562 11.04H74.9762V19.456H76.0482V22.976H74.5442V20.96H67.5362V22.992H66.0322V19.472H67.1305C67.5509 19.0124 67.8696 18.4688 68.0651 17.8769C68.2679 17.2633 68.3335 16.6126 68.2573 15.9709L68.2562 15.9615V11.04ZM68.5762 11.36V15.9426C68.6562 16.6278 68.5854 17.3222 68.369 17.9773C68.1515 18.6354 67.7923 19.2377 67.3166 19.7418L67.2692 19.792H66.3522V22.672H67.2162V20.64H74.8642V22.656H75.7282V19.776H74.6562V11.36H68.5762ZM97.8082 11.04H104.72V12.544H102.048V20.96H100.496V12.544H97.8082V11.04ZM98.1282 11.36V12.224H100.816V20.64H101.728V12.224H104.4V11.36H98.1282ZM111.478 11.04H113.287L109.558 19.3524C109.402 19.8589 109.094 20.3051 108.675 20.63C108.253 20.957 107.74 21.1449 107.207 21.1679L107.198 21.1682C106.846 21.1638 106.498 21.0882 106.176 20.9465L106.049 20.8905L106.462 19.4218L106.641 19.5257C106.811 19.625 107.005 19.6782 107.202 19.68L107.212 19.6801C107.41 19.695 107.608 19.6496 107.779 19.5495C107.946 19.4049 108.075 19.2212 108.155 19.0146L108.158 19.0052L108.48 18.3035L105.208 11.056H107.018L109.278 16.31L111.478 11.04ZM111.691 11.36L109.282 17.13L106.807 11.376H105.704L108.832 18.3045L108.452 19.1342C108.351 19.3931 108.188 19.6227 107.976 19.8021L107.966 19.8104L107.955 19.817C107.726 19.9551 107.46 20.0189 107.193 19.9999C107.011 19.9976 106.83 19.9608 106.662 19.8921L106.433 20.7054C106.678 20.7958 106.936 20.8441 107.198 20.848C107.663 20.827 108.111 20.6626 108.479 20.3771C108.848 20.0907 109.119 19.6967 109.255 19.2495L109.258 19.2398L112.793 11.36H111.691ZM114.272 11.04H121.536V20.96H119.984V12.544H115.824V20.96H114.272V11.04ZM114.592 11.36V20.64H115.504V12.224H120.304V20.64H121.216V11.36H114.592ZM123.408 11.04H124.96V15.152H129.44V11.04H130.992V20.96H129.44V16.624H124.96V20.96H123.408V11.04ZM123.728 11.36V20.64H124.64V16.304H129.76V20.64H130.672V11.36H129.76V15.472H124.64V11.36H123.728ZM79.2153 13.1346C79.938 12.415 80.9163 12.0109 81.9362 12.0109C82.9561 12.0109 83.9345 12.415 84.6571 13.1346L84.6629 13.1404C85.3732 13.9234 85.7665 14.9428 85.7665 16C85.7665 17.0572 85.373 18.0765 84.6627 18.8595L84.6573 18.8655C83.9346 19.5852 82.9561 19.9891 81.9362 19.9891C80.9163 19.9891 79.938 19.585 79.2153 18.8654L79.3282 18.752L79.2097 18.8595C78.4994 18.0765 78.106 17.0572 78.106 16C78.106 14.9428 78.4994 13.9235 79.2097 13.1405L79.2153 13.1346ZM79.444 18.6415C80.1064 19.2996 81.0023 19.6691 81.9362 19.6691C82.8701 19.6691 83.766 19.2996 84.4285 18.6415C85.0836 17.9178 85.4465 16.9763 85.4465 16C85.4465 15.0237 85.0836 14.0823 84.4285 13.3585C83.766 12.7004 82.8701 12.3309 81.9362 12.3309C81.0023 12.3309 80.1064 12.7004 79.444 13.3585C78.7888 14.0823 78.426 15.0237 78.426 16C78.426 16.9763 78.7888 17.9178 79.444 18.6415ZM134.655 13.1346C135.378 12.415 136.356 12.0109 137.376 12.0109C138.396 12.0109 139.374 12.415 140.097 13.1346L140.103 13.1404C140.813 13.9234 141.206 14.9428 141.206 16C141.206 17.0572 140.813 18.0765 140.103 18.8595L140.097 18.8655C139.375 19.5852 138.396 19.9891 137.376 19.9891C136.356 19.9891 135.378 19.585 134.655 18.8654L134.768 18.752L134.65 18.8595C133.939 18.0765 133.546 17.0572 133.546 16C133.546 14.9428 133.939 13.9235 134.65 13.1405L134.655 13.1346ZM134.884 18.6415C135.546 19.2996 136.442 19.6691 137.376 19.6691C138.31 19.6691 139.206 19.2996 139.868 18.6415C140.524 17.9178 140.886 16.9763 140.886 16C140.886 15.0237 140.524 14.0822 139.868 13.3585C139.206 12.7004 138.31 12.3309 137.376 12.3309C136.442 12.3309 135.546 12.7004 134.884 13.3585C134.229 14.0822 133.866 15.0237 133.866 16C133.866 16.9763 134.229 17.9178 134.884 18.6415ZM150.926 12.176C151.15 12.1697 151.373 12.2126 151.579 12.3018C151.785 12.3908 151.969 12.5237 152.118 12.6912C152.265 12.8431 152.38 13.0229 152.456 13.2199C152.533 13.4182 152.57 13.63 152.563 13.8426C152.556 14.0552 152.507 14.2643 152.418 14.4574C152.329 14.6483 152.204 14.8197 152.049 14.9617C151.892 15.1304 151.701 15.2633 151.489 15.3514C151.275 15.44 151.044 15.4812 150.813 15.472H148.413L148.484 12.176H150.926ZM151.452 12.5954C151.289 12.5246 151.111 12.4906 150.933 12.4959L150.928 12.496H148.797L148.74 15.152H150.823C151.009 15.1598 151.194 15.127 151.366 15.0558C151.538 14.9846 151.692 14.8767 151.818 14.7397L151.823 14.7344L151.829 14.7295C151.954 14.6155 152.056 14.4773 152.127 14.3232C152.198 14.1691 152.238 14.0023 152.243 13.8326C152.248 13.6629 152.219 13.494 152.158 13.3357C152.097 13.1775 152.004 13.0332 151.886 12.9116L151.88 12.9061C151.762 12.7724 151.616 12.6663 151.452 12.5954ZM69.4402 12.224H73.6482V19.84H68.4046L68.5513 19.5972C69.2033 18.5185 69.5133 17.2676 69.4405 16.0092L69.44 16L69.4402 12.224ZM69.7602 12.544V15.9954C69.8304 17.2234 69.5538 18.4444 68.9649 19.52H73.3282V12.544H69.7602ZM148.467 16.272H151.056C151.523 16.272 151.971 16.4574 152.301 16.7875C152.631 17.1176 152.816 17.5652 152.816 18.032L152.816 18.0343C152.81 18.4802 152.635 18.9071 152.326 19.2287C152.167 19.4075 151.971 19.5492 151.751 19.6438C151.531 19.7385 151.293 19.7836 151.054 19.776H148.414L148.467 16.272ZM148.782 16.592L148.739 19.456H151.062C151.255 19.4625 151.447 19.4263 151.624 19.3499C151.802 19.2735 151.96 19.1588 152.088 19.014L152.093 19.0089C152.347 18.7458 152.491 18.3962 152.496 18.0308C152.496 17.6494 152.344 17.2836 152.074 17.0138C151.804 16.7437 151.438 16.592 151.056 16.592H148.782Z" fill="white"/>
<path d="M16.7039 12.064C16.1824 12.6898 15.9192 13.4909 15.9679 14.304V49.696C15.9192 50.5092 16.1824 51.3103 16.7039 51.936L16.8159 52.048L36.6399 32.24V31.776L16.8159 11.952L16.7039 12.064Z" fill="url(#paint0_linear_134_401)"/>
<path d="M43.1999 38.848L36.6399 32.24V31.776L43.1999 25.152L43.3439 25.232L51.1999 29.696C53.4399 30.96 53.4399 33.04 51.1999 34.32L43.3759 38.768L43.1999 38.848Z" fill="url(#paint1_linear_134_401)"/>
<path d="M43.3919 38.752L36.6399 32L16.7039 51.936C17.1604 52.3374 17.7429 52.5666 18.3505 52.5842C18.9582 52.6017 19.5529 52.4064 20.0319 52.032L43.4079 38.752" fill="url(#paint2_linear_134_401)"/>
<path d="M43.392 25.248L20.016 11.968C19.537 11.5937 18.9423 11.3984 18.3347 11.4159C17.727 11.4334 17.1446 11.6627 16.688 12.064L36.64 32L43.392 25.248Z" fill="url(#paint3_linear_134_401)"/>
<path opacity="0.2" d="M43.1999 38.608L20.0159 51.808C19.5539 52.1534 18.9926 52.34 18.4159 52.34C17.8391 52.34 17.2778 52.1534 16.8159 51.808L16.7039 51.92L16.8159 52.032C17.2767 52.3799 17.8384 52.568 18.4159 52.568C18.9933 52.568 19.555 52.3799 20.0159 52.032L43.3919 38.752L43.1999 38.608Z" fill="black"/>
<path opacity="0.12" d="M16.7039 51.712C16.1824 51.0862 15.9192 50.2851 15.9679 49.472V49.712C15.9192 50.5251 16.1824 51.3262 16.7039 51.952L16.8159 51.84L16.7039 51.712ZM51.1999 34.08L43.1999 38.608L43.3439 38.752L51.1999 34.304C51.6457 34.0946 52.0283 33.7713 52.3092 33.3668C52.5901 32.9623 52.7594 32.4908 52.7999 32C52.7099 32.4459 52.5189 32.8653 52.2415 33.2259C51.9642 33.5865 51.6078 33.8786 51.1999 34.08Z" fill="black"/>
<path opacity="0.25" d="M20.0159 12.1914L51.1999 29.9194C51.6078 30.1208 51.9642 30.413 52.2415 30.7735C52.5189 31.1341 52.7099 31.5535 52.7999 31.9994C52.7594 31.5086 52.5901 31.0371 52.3092 30.6326C52.0283 30.2281 51.6457 29.9048 51.1999 29.6954L20.0159 11.9674C17.7759 10.7034 15.9519 11.7594 15.9519 14.3194V14.5594C15.9999 11.9834 17.7919 10.9274 20.0159 12.1914Z" fill="white"/>
<defs>
<linearGradient id="paint0_linear_134_401" x1="34.8799" y1="13.936" x2="8.03189" y2="40.784" gradientUnits="userSpaceOnUse">
<stop stop-color="#00A0FF"/>
<stop offset="0.01" stop-color="#00A1FF"/>
<stop offset="0.26" stop-color="#00BEFF"/>
<stop offset="0.51" stop-color="#00D2FF"/>
<stop offset="0.76" stop-color="#00DFFF"/>
<stop offset="1" stop-color="#00E3FF"/>
</linearGradient>
<linearGradient id="paint1_linear_134_401" x1="54.1279" y1="32" x2="15.4239" y2="32" gradientUnits="userSpaceOnUse">
<stop stop-color="#FFE000"/>
<stop offset="0.41" stop-color="#FFBD00"/>
<stop offset="0.78" stop-color="#FFA500"/>
<stop offset="1" stop-color="#FF9C00"/>
</linearGradient>
<linearGradient id="paint2_linear_134_401" x1="39.7279" y1="35.68" x2="3.31185" y2="72.08" gradientUnits="userSpaceOnUse">
<stop stop-color="#FF3A44"/>
<stop offset="1" stop-color="#C31162"/>
</linearGradient>
<linearGradient id="paint3_linear_134_401" x1="11.68" y1="0.28803" x2="27.936" y2="16.544" gradientUnits="userSpaceOnUse">
<stop stop-color="#32A071"/>
<stop offset="0.07" stop-color="#2DA771"/>
<stop offset="0.48" stop-color="#15CF74"/>
<stop offset="0.8" stop-color="#06E775"/>
<stop offset="1" stop-color="#00F076"/>
</linearGradient>
</defs>
</svg>
