<svg width="216" height="64" viewBox="0 0 216 64" fill="none" xmlns="http://www.w3.org/2000/svg">
<path d="M208 0H8C3.58172 0 0 3.58172 0 8V56C0 60.4183 3.58172 64 8 64H208C212.418 64 216 60.4183 216 56V8C216 3.58172 212.418 0 208 0Z" fill="black"/>
<path d="M208 1.28C209.782 1.28 211.492 1.988 212.752 3.24824C214.012 4.50849 214.72 6.21775 214.72 8V56C214.72 57.7823 214.012 59.4915 212.752 60.7518C211.492 62.012 209.782 62.72 208 62.72H8C6.21775 62.72 4.50849 62.012 3.24824 60.7518C1.988 59.4915 1.28 57.7823 1.28 56V8C1.28 6.21775 1.988 4.50849 3.24824 3.24824C4.50849 1.988 6.21775 1.28 8 1.28H208ZM208 0H8C5.87827 0 3.84344 0.842855 2.34315 2.34315C0.842855 3.84344 0 5.87827 0 8V56C0 58.1217 0.842855 60.1566 2.34315 61.6569C3.84344 63.1571 5.87827 64 8 64H208C210.122 64 212.157 63.1571 213.657 61.6569C215.157 60.1566 216 58.1217 216 56V8C216 5.87827 215.157 3.84344 213.657 2.34315C212.157 0.842855 210.122 0 208 0Z" fill="#A6A6A6"/>
<path d="M68.1865 35.0364H71.9295L75.4255 44.5934H75.4825L78.9405 35.0364H82.7025V48.4884H80.3275V37.6774H80.2895L76.2045 48.4884H74.5325L70.5045 37.6774H70.4665V48.4884H68.1865V35.0364Z" fill="white"/>
<path d="M85.589 39.3684H87.869V48.4884H85.589V39.3684ZM85.266 36.2714C85.266 35.904 85.399 35.5874 85.665 35.3214C85.9437 35.0427 86.292 34.9034 86.71 34.9034C87.128 34.9034 87.4764 35.0364 87.755 35.3024C88.0464 35.5557 88.192 35.8787 88.192 36.2714C88.192 36.664 88.0464 36.9934 87.755 37.2594C87.4764 37.5127 87.128 37.6394 86.71 37.6394C86.292 37.6394 85.9437 37.5064 85.665 37.2404C85.399 36.9617 85.266 36.6387 85.266 36.2714Z" fill="white"/>
<path d="M96.867 41.8954C96.6897 41.642 96.4237 41.433 96.069 41.2684C95.7144 41.091 95.3534 41.0024 94.986 41.0024C94.568 41.0024 94.2007 41.091 93.884 41.2684C93.5674 41.433 93.3014 41.6547 93.086 41.9334C92.8834 42.212 92.7314 42.5287 92.63 42.8834C92.5287 43.2254 92.478 43.5737 92.478 43.9284C92.478 44.283 92.5287 44.6377 92.63 44.9924C92.744 45.3344 92.9087 45.6447 93.124 45.9234C93.3394 46.202 93.6054 46.43 93.922 46.6074C94.2514 46.772 94.6314 46.8544 95.062 46.8544C95.4167 46.8544 95.7714 46.7847 96.126 46.6454C96.4807 46.506 96.7657 46.3034 96.981 46.0374L98.406 47.4814C98.026 47.8867 97.5384 48.2034 96.943 48.4314C96.3604 48.6467 95.727 48.7544 95.043 48.7544C94.3717 48.7544 93.732 48.6467 93.124 48.4314C92.5287 48.216 92.003 47.8994 91.547 47.4814C91.1037 47.0634 90.749 46.5567 90.483 45.9614C90.2297 45.366 90.103 44.6884 90.103 43.9284C90.103 43.1937 90.2297 42.5287 90.483 41.9334C90.749 41.338 91.1037 40.8314 91.547 40.4134C91.9904 39.9954 92.5034 39.6724 93.086 39.4444C93.6814 39.2164 94.3147 39.1024 94.986 39.1024C95.6574 39.1024 96.3034 39.229 96.924 39.4824C97.5574 39.7357 98.0577 40.084 98.425 40.5274L96.867 41.8954Z" fill="white"/>
<path d="M99.9124 39.3684H102.097V40.8884H102.135C102.389 40.3564 102.743 39.9257 103.199 39.5964C103.655 39.267 104.187 39.1024 104.795 39.1024C104.884 39.1024 104.979 39.1087 105.08 39.1214C105.182 39.1214 105.27 39.134 105.346 39.1594V41.2494C105.194 41.2114 105.061 41.186 104.947 41.1734C104.846 41.1607 104.745 41.1544 104.643 41.1544C104.124 41.1544 103.706 41.2494 103.389 41.4394C103.073 41.6294 102.826 41.8574 102.648 42.1234C102.471 42.3894 102.351 42.6617 102.287 42.9404C102.224 43.219 102.192 43.4407 102.192 43.6054V48.4884H99.9124V39.3684Z" fill="white"/>
<path d="M105.967 43.8904C105.967 43.1684 106.094 42.516 106.347 41.9334C106.613 41.338 106.968 40.8314 107.411 40.4134C107.855 39.9954 108.38 39.6724 108.988 39.4444C109.596 39.2164 110.242 39.1024 110.926 39.1024C111.61 39.1024 112.256 39.2164 112.864 39.4444C113.472 39.6724 113.998 39.9954 114.441 40.4134C114.885 40.8314 115.233 41.338 115.486 41.9334C115.752 42.516 115.885 43.1684 115.885 43.8904C115.885 44.6124 115.752 45.271 115.486 45.8664C115.233 46.4617 114.885 46.9747 114.441 47.4054C113.998 47.8234 113.472 48.1527 112.864 48.3934C112.256 48.634 111.61 48.7544 110.926 48.7544C110.242 48.7544 109.596 48.634 108.988 48.3934C108.38 48.1527 107.855 47.8234 107.411 47.4054C106.968 46.9747 106.613 46.4617 106.347 45.8664C106.094 45.271 105.967 44.6124 105.967 43.8904ZM108.285 43.8904C108.285 44.245 108.336 44.5997 108.437 44.9544C108.551 45.309 108.716 45.6257 108.931 45.9044C109.147 46.183 109.419 46.411 109.748 46.5884C110.078 46.7657 110.47 46.8544 110.926 46.8544C111.382 46.8544 111.775 46.7657 112.104 46.5884C112.434 46.411 112.706 46.183 112.921 45.9044C113.137 45.6257 113.295 45.309 113.396 44.9544C113.51 44.5997 113.567 44.245 113.567 43.8904C113.567 43.5357 113.51 43.1874 113.396 42.8454C113.295 42.4907 113.137 42.174 112.921 41.8954C112.706 41.6167 112.434 41.395 112.104 41.2304C111.775 41.053 111.382 40.9644 110.926 40.9644C110.47 40.9644 110.078 41.053 109.748 41.2304C109.419 41.395 109.147 41.6167 108.931 41.8954C108.716 42.174 108.551 42.4907 108.437 42.8454C108.336 43.1874 108.285 43.5357 108.285 43.8904Z" fill="white"/>
<path d="M123.093 41.8004C122.89 41.5344 122.612 41.3064 122.257 41.1164C121.902 40.9137 121.516 40.8124 121.098 40.8124C120.731 40.8124 120.395 40.8884 120.091 41.0404C119.787 41.1924 119.635 41.4457 119.635 41.8004C119.635 42.155 119.8 42.4084 120.129 42.5604C120.471 42.6997 120.965 42.8454 121.611 42.9974C121.953 43.0734 122.295 43.1747 122.637 43.3014C122.992 43.428 123.308 43.599 123.587 43.8144C123.878 44.017 124.113 44.2767 124.29 44.5934C124.467 44.8974 124.556 45.271 124.556 45.7144C124.556 46.2717 124.448 46.7467 124.233 47.1394C124.03 47.5194 123.752 47.8297 123.397 48.0704C123.055 48.311 122.65 48.482 122.181 48.5834C121.725 48.6974 121.25 48.7544 120.756 48.7544C120.047 48.7544 119.356 48.6277 118.685 48.3744C118.014 48.1084 117.456 47.7347 117.013 47.2534L118.514 45.8474C118.767 46.1767 119.097 46.449 119.502 46.6644C119.907 46.8797 120.357 46.9874 120.851 46.9874C121.016 46.9874 121.18 46.9684 121.345 46.9304C121.522 46.8924 121.681 46.8354 121.82 46.7594C121.972 46.6707 122.092 46.5567 122.181 46.4174C122.27 46.278 122.314 46.107 122.314 45.9044C122.314 45.5244 122.137 45.252 121.782 45.0874C121.44 44.9227 120.921 44.758 120.224 44.5934C119.882 44.5174 119.546 44.4224 119.217 44.3084C118.9 44.1817 118.615 44.0234 118.362 43.8334C118.109 43.6307 117.906 43.3837 117.754 43.0924C117.602 42.801 117.526 42.44 117.526 42.0094C117.526 41.5027 117.627 41.0657 117.83 40.6984C118.045 40.331 118.324 40.0334 118.666 39.8054C119.008 39.5647 119.394 39.3874 119.825 39.2734C120.256 39.1594 120.699 39.1024 121.155 39.1024C121.814 39.1024 122.453 39.2164 123.074 39.4444C123.707 39.6724 124.208 40.0207 124.575 40.4894L123.093 41.8004Z" fill="white"/>
<path d="M126.006 43.8904C126.006 43.1684 126.133 42.516 126.386 41.9334C126.652 41.338 127.007 40.8314 127.45 40.4134C127.894 39.9954 128.419 39.6724 129.027 39.4444C129.635 39.2164 130.281 39.1024 130.965 39.1024C131.649 39.1024 132.295 39.2164 132.903 39.4444C133.511 39.6724 134.037 39.9954 134.48 40.4134C134.924 40.8314 135.272 41.338 135.525 41.9334C135.791 42.516 135.924 43.1684 135.924 43.8904C135.924 44.6124 135.791 45.271 135.525 45.8664C135.272 46.4617 134.924 46.9747 134.48 47.4054C134.037 47.8234 133.511 48.1527 132.903 48.3934C132.295 48.634 131.649 48.7544 130.965 48.7544C130.281 48.7544 129.635 48.634 129.027 48.3934C128.419 48.1527 127.894 47.8234 127.45 47.4054C127.007 46.9747 126.652 46.4617 126.386 45.8664C126.133 45.271 126.006 44.6124 126.006 43.8904ZM128.324 43.8904C128.324 44.245 128.375 44.5997 128.476 44.9544C128.59 45.309 128.755 45.6257 128.97 45.9044C129.186 46.183 129.458 46.411 129.787 46.5884C130.117 46.7657 130.509 46.8544 130.965 46.8544C131.421 46.8544 131.814 46.7657 132.143 46.5884C132.473 46.411 132.745 46.183 132.96 45.9044C133.176 45.6257 133.334 45.309 133.435 44.9544C133.549 44.5997 133.606 44.245 133.606 43.8904C133.606 43.5357 133.549 43.1874 133.435 42.8454C133.334 42.4907 133.176 42.174 132.96 41.8954C132.745 41.6167 132.473 41.395 132.143 41.2304C131.814 41.053 131.421 40.9644 130.965 40.9644C130.509 40.9644 130.117 41.053 129.787 41.2304C129.458 41.395 129.186 41.6167 128.97 41.8954C128.755 42.174 128.59 42.4907 128.476 42.8454C128.375 43.1874 128.324 43.5357 128.324 43.8904Z" fill="white"/>
<path d="M138.496 41.1924H136.767V39.3684H138.496V38.0194C138.496 37.4747 138.553 36.9554 138.667 36.4614C138.794 35.9547 138.996 35.5114 139.275 35.1314C139.566 34.7514 139.946 34.4537 140.415 34.2384C140.884 34.0104 141.473 33.8964 142.182 33.8964C142.435 33.8964 142.644 33.909 142.809 33.9344C142.986 33.947 143.164 33.9787 143.341 34.0294L143.189 35.9674C143.062 35.9294 142.923 35.8977 142.771 35.8724C142.632 35.847 142.48 35.8344 142.315 35.8344C141.986 35.8344 141.72 35.8977 141.517 36.0244C141.314 36.151 141.156 36.3157 141.042 36.5184C140.941 36.721 140.871 36.9427 140.833 37.1834C140.795 37.424 140.776 37.6584 140.776 37.8864V39.3684H142.885V41.1924H140.776V48.4884H138.496V41.1924Z" fill="white"/>
<path d="M142.706 41.1924V39.3684H144.302V36.7274H146.544V39.3684H148.824V41.1924H146.544V45.4294C146.544 45.8347 146.614 46.1704 146.753 46.4364C146.905 46.7024 147.234 46.8354 147.741 46.8354C147.893 46.8354 148.058 46.8227 148.235 46.7974C148.412 46.7594 148.571 46.7087 148.71 46.6454L148.786 48.4314C148.583 48.5074 148.343 48.5644 148.064 48.6024C147.785 48.653 147.519 48.6784 147.266 48.6784C146.658 48.6784 146.164 48.596 145.784 48.4314C145.404 48.254 145.1 48.0197 144.872 47.7284C144.657 47.4244 144.505 47.0824 144.416 46.7024C144.34 46.3097 144.302 45.8917 144.302 45.4484V41.1924H142.706Z" fill="white"/>
<path d="M162.197 37.8484C161.944 37.519 161.583 37.2467 161.114 37.0314C160.658 36.8034 160.196 36.6894 159.727 36.6894C159.448 36.6894 159.17 36.7274 158.891 36.8034C158.612 36.8667 158.359 36.9744 158.131 37.1264C157.903 37.2657 157.713 37.4557 157.561 37.6964C157.422 37.9244 157.352 38.203 157.352 38.5324C157.352 38.8364 157.415 39.096 157.542 39.3114C157.669 39.5267 157.84 39.7104 158.055 39.8624C158.283 40.0144 158.555 40.1474 158.872 40.2614C159.189 40.3754 159.537 40.4894 159.917 40.6034C160.348 40.7427 160.791 40.901 161.247 41.0784C161.716 41.2557 162.14 41.49 162.52 41.7814C162.913 42.0727 163.229 42.44 163.47 42.8834C163.723 43.3267 163.85 43.8777 163.85 44.5364C163.85 45.2584 163.717 45.8917 163.451 46.4364C163.185 46.9684 162.83 47.4117 162.387 47.7664C161.944 48.121 161.424 48.387 160.829 48.5644C160.234 48.7417 159.607 48.8304 158.948 48.8304C158.074 48.8304 157.219 48.672 156.383 48.3554C155.547 48.026 154.863 47.5447 154.331 46.9114L156.041 45.3154C156.37 45.7714 156.807 46.1324 157.352 46.3984C157.909 46.6644 158.454 46.7974 158.986 46.7974C159.265 46.7974 159.55 46.7657 159.841 46.7024C160.132 46.6264 160.392 46.506 160.62 46.3414C160.861 46.1767 161.051 45.974 161.19 45.7334C161.342 45.48 161.418 45.1697 161.418 44.8024C161.418 44.4477 161.336 44.1564 161.171 43.9284C161.006 43.6877 160.785 43.485 160.506 43.3204C160.227 43.143 159.898 42.991 159.518 42.8644C159.138 42.7377 158.739 42.6047 158.321 42.4654C157.916 42.3387 157.51 42.1867 157.105 42.0094C156.7 41.832 156.332 41.5977 156.003 41.3064C155.686 41.015 155.427 40.6604 155.224 40.2424C155.021 39.8117 154.92 39.2797 154.92 38.6464C154.92 37.9624 155.059 37.3734 155.338 36.8794C155.629 36.3854 156.003 35.98 156.459 35.6634C156.928 35.334 157.453 35.0934 158.036 34.9414C158.631 34.7767 159.233 34.6944 159.841 34.6944C160.525 34.6944 161.215 34.8147 161.912 35.0554C162.621 35.296 163.236 35.657 163.755 36.1384L162.197 37.8484Z" fill="white"/>
<path d="M164.712 41.1924V39.3684H166.308V36.7274H168.55V39.3684H170.83V41.1924H168.55V45.4294C168.55 45.8347 168.619 46.1704 168.759 46.4364C168.911 46.7024 169.24 46.8354 169.747 46.8354C169.899 46.8354 170.063 46.8227 170.241 46.7974C170.418 46.7594 170.576 46.7087 170.716 46.6454L170.792 48.4314C170.589 48.5074 170.348 48.5644 170.07 48.6024C169.791 48.653 169.525 48.6784 169.272 48.6784C168.664 48.6784 168.17 48.596 167.79 48.4314C167.41 48.254 167.106 48.0197 166.878 47.7284C166.662 47.4244 166.51 47.0824 166.422 46.7024C166.346 46.3097 166.308 45.8917 166.308 45.4484V41.1924H164.712Z" fill="white"/>
<path d="M171.948 43.8904C171.948 43.1684 172.074 42.516 172.328 41.9334C172.594 41.338 172.948 40.8314 173.392 40.4134C173.835 39.9954 174.361 39.6724 174.969 39.4444C175.577 39.2164 176.223 39.1024 176.907 39.1024C177.591 39.1024 178.237 39.2164 178.845 39.4444C179.453 39.6724 179.978 39.9954 180.422 40.4134C180.865 40.8314 181.213 41.338 181.467 41.9334C181.733 42.516 181.866 43.1684 181.866 43.8904C181.866 44.6124 181.733 45.271 181.467 45.8664C181.213 46.4617 180.865 46.9747 180.422 47.4054C179.978 47.8234 179.453 48.1527 178.845 48.3934C178.237 48.634 177.591 48.7544 176.907 48.7544C176.223 48.7544 175.577 48.634 174.969 48.3934C174.361 48.1527 173.835 47.8234 173.392 47.4054C172.948 46.9747 172.594 46.4617 172.328 45.8664C172.074 45.271 171.948 44.6124 171.948 43.8904ZM174.266 43.8904C174.266 44.245 174.316 44.5997 174.418 44.9544C174.532 45.309 174.696 45.6257 174.912 45.9044C175.127 46.183 175.399 46.411 175.729 46.5884C176.058 46.7657 176.451 46.8544 176.907 46.8544C177.363 46.8544 177.755 46.7657 178.085 46.5884C178.414 46.411 178.686 46.183 178.902 45.9044C179.117 45.6257 179.275 45.309 179.377 44.9544C179.491 44.5997 179.548 44.245 179.548 43.8904C179.548 43.5357 179.491 43.1874 179.377 42.8454C179.275 42.4907 179.117 42.174 178.902 41.8954C178.686 41.6167 178.414 41.395 178.085 41.2304C177.755 41.053 177.363 40.9644 176.907 40.9644C176.451 40.9644 176.058 41.053 175.729 41.2304C175.399 41.395 175.127 41.6167 174.912 41.8954C174.696 42.174 174.532 42.4907 174.418 42.8454C174.316 43.1874 174.266 43.5357 174.266 43.8904Z" fill="white"/>
<path d="M184.076 39.3684H186.261V40.8884H186.299C186.553 40.3564 186.907 39.9257 187.363 39.5964C187.819 39.267 188.351 39.1024 188.959 39.1024C189.048 39.1024 189.143 39.1087 189.244 39.1214C189.346 39.1214 189.434 39.134 189.51 39.1594V41.2494C189.358 41.2114 189.225 41.186 189.111 41.1734C189.01 41.1607 188.909 41.1544 188.807 41.1544C188.288 41.1544 187.87 41.2494 187.553 41.4394C187.237 41.6294 186.99 41.8574 186.812 42.1234C186.635 42.3894 186.515 42.6617 186.451 42.9404C186.388 43.219 186.356 43.4407 186.356 43.6054V48.4884H184.076V39.3684Z" fill="white"/>
<path d="M197.085 43.0164C197.085 42.725 197.041 42.4464 196.952 42.1804C196.876 41.9144 196.75 41.68 196.572 41.4774C196.395 41.2747 196.167 41.1164 195.888 41.0024C195.622 40.8757 195.306 40.8124 194.938 40.8124C194.254 40.8124 193.672 41.0214 193.19 41.4394C192.722 41.8447 192.462 42.3704 192.411 43.0164H197.085ZM199.365 44.0424C199.365 44.1437 199.365 44.245 199.365 44.3464C199.365 44.4477 199.359 44.549 199.346 44.6504H192.411C192.437 44.9797 192.519 45.2837 192.658 45.5624C192.81 45.8284 193.007 46.0627 193.247 46.2654C193.488 46.4554 193.76 46.6074 194.064 46.7214C194.368 46.8354 194.685 46.8924 195.014 46.8924C195.584 46.8924 196.066 46.791 196.458 46.5884C196.851 46.373 197.174 46.0817 197.427 45.7144L198.947 46.9304C198.048 48.1464 196.743 48.7544 195.033 48.7544C194.324 48.7544 193.672 48.6467 193.076 48.4314C192.481 48.2034 191.962 47.8867 191.518 47.4814C191.088 47.076 190.746 46.582 190.492 45.9994C190.252 45.404 190.131 44.7327 190.131 43.9854C190.131 43.2507 190.252 42.5857 190.492 41.9904C190.746 41.3824 191.088 40.8694 191.518 40.4514C191.949 40.0207 192.456 39.6914 193.038 39.4634C193.634 39.2227 194.273 39.1024 194.957 39.1024C195.591 39.1024 196.173 39.21 196.705 39.4254C197.25 39.628 197.719 39.9384 198.111 40.3564C198.504 40.7617 198.808 41.2747 199.023 41.8954C199.251 42.5034 199.365 43.219 199.365 44.0424Z" fill="white"/>
<path d="M77.4077 28.4962H76.0327V25.4883H68.1733V28.4962H66.7983V24.2071H67.6812C68.452 22.8946 69.1187 21.3034 69.6812 19.4337C70.2437 17.5639 70.5744 15.7748 70.6733 14.0665H75.9546V24.2071H77.4077V28.4962ZM74.5249 24.2071V15.3633H71.939C71.84 16.6602 71.5223 18.1732 70.9858 19.9024C70.4546 21.6316 69.8582 23.0665 69.1968 24.2071H74.5249Z" fill="white"/>
<path d="M86.5796 21.1837C86.5796 22.5847 86.2254 23.6784 85.5171 24.4649C84.8088 25.2514 83.8296 25.6446 82.5796 25.6446C81.8035 25.6446 81.116 25.4649 80.5171 25.1055C79.9181 24.7409 79.4572 24.2201 79.1343 23.543C78.8114 22.8659 78.6499 22.0795 78.6499 21.1837C78.6499 19.7878 78.9989 18.7019 79.6968 17.9258C80.3947 17.1446 81.3739 16.754 82.6343 16.754C83.8426 16.754 84.8009 17.1524 85.5093 17.9493C86.2228 18.7409 86.5796 19.8191 86.5796 21.1837ZM80.103 21.1837C80.103 22.2618 80.314 23.0821 80.7358 23.6446C81.1629 24.2019 81.7905 24.4805 82.6187 24.4805C83.4364 24.4805 84.0588 24.2019 84.4858 23.6446C84.9129 23.0821 85.1265 22.2618 85.1265 21.1837C85.1265 20.1055 84.9103 19.2956 84.478 18.754C84.0509 18.2071 83.4233 17.9337 82.5952 17.9337C80.9338 17.9337 80.103 19.017 80.103 21.1837Z" fill="white"/>
<path d="M92.2515 25.6446C91.0171 25.6446 90.0562 25.267 89.3687 24.5118C88.6812 23.7514 88.3374 22.6628 88.3374 21.2462C88.3374 19.8087 88.6838 18.7019 89.3765 17.9258C90.0744 17.1446 91.0666 16.754 92.353 16.754C92.7697 16.754 93.1812 16.7982 93.5874 16.8868C93.9989 16.9701 94.3374 17.0795 94.603 17.2149L94.1733 18.3868C93.4494 18.1159 92.8322 17.9805 92.3218 17.9805C91.4572 17.9805 90.8192 18.254 90.4077 18.8008C89.9963 19.3425 89.7905 20.1524 89.7905 21.2305C89.7905 22.267 89.9963 23.0613 90.4077 23.6133C90.8192 24.1602 91.4285 24.4337 92.2358 24.4337C92.991 24.4337 93.7332 24.267 94.4624 23.9337V25.1837C93.8687 25.4909 93.1317 25.6446 92.2515 25.6446Z" fill="white"/>
<path d="M102.423 18.0977H99.6187V25.4883H98.228V18.0977H95.4624V16.9102H102.423V18.0977Z" fill="white"/>
<path d="M102.783 16.9102H104.291L106.142 21.793C106.533 22.8555 106.772 23.6342 106.861 24.129H106.923C106.97 23.9363 107.077 23.5769 107.244 23.0508C107.41 22.5196 107.551 22.0951 107.666 21.7774L109.408 16.9102H110.923L107.228 26.6758C106.869 27.6238 106.442 28.3034 105.947 28.7149C105.452 29.1264 104.84 29.3321 104.111 29.3321C103.72 29.3321 103.332 29.2878 102.947 29.1993V28.0821C103.207 28.1446 103.52 28.1758 103.884 28.1758C104.332 28.1758 104.712 28.0508 105.025 27.8008C105.337 27.5561 105.593 27.1758 105.791 26.6602L106.236 25.5196L102.783 16.9102Z" fill="white"/>
<path d="M113.689 25.4883H112.283V16.9102H119.533V25.4883H118.126V18.1133H113.689V25.4883Z" fill="white"/>
<path d="M123.673 16.9102V20.4805H128.33V16.9102H129.736V25.4883H128.33V21.668H123.673V25.4883H122.267V16.9102H123.673Z" fill="white"/>
<path d="M139.923 21.1837C139.923 22.5847 139.569 23.6784 138.861 24.4649C138.153 25.2514 137.173 25.6446 135.923 25.6446C135.147 25.6446 134.46 25.4649 133.861 25.1055C133.262 24.7409 132.801 24.2201 132.478 23.543C132.155 22.8659 131.994 22.0795 131.994 21.1837C131.994 19.7878 132.343 18.7019 133.041 17.9258C133.738 17.1446 134.718 16.754 135.978 16.754C137.186 16.754 138.145 17.1524 138.853 17.9493C139.567 18.7409 139.923 19.8191 139.923 21.1837ZM133.447 21.1837C133.447 22.2618 133.658 23.0821 134.08 23.6446C134.507 24.2019 135.134 24.4805 135.962 24.4805C136.78 24.4805 137.403 24.2019 137.83 23.6446C138.257 23.0821 138.47 22.2618 138.47 21.1837C138.47 20.1055 138.254 19.2956 137.822 18.754C137.395 18.2071 136.767 17.9337 135.939 17.9337C134.278 17.9337 133.447 19.017 133.447 21.1837Z" fill="white"/>
<path d="M153.212 19.0743C153.212 19.6264 153.056 20.0482 152.744 20.3399C152.431 20.6264 151.986 20.8217 151.408 20.9258V20.9962C152.132 21.0951 152.658 21.3113 152.986 21.6446C153.319 21.9727 153.486 22.4154 153.486 22.9727C153.486 23.7852 153.186 24.4076 152.587 24.8399C151.994 25.2722 151.137 25.4883 150.017 25.4883H146.158V16.9102H150.001C152.142 16.9102 153.212 17.6316 153.212 19.0743ZM152.08 22.8946C152.08 22.4154 151.892 22.0795 151.517 21.8868C151.142 21.6941 150.593 21.5977 149.869 21.5977H147.564V24.3555H149.9C151.353 24.3555 152.08 23.8686 152.08 22.8946ZM151.837 19.1993C151.837 18.7982 151.681 18.5118 151.369 18.3399C151.061 18.168 150.595 18.0821 149.97 18.0821H147.564V20.4337H149.712C150.478 20.4337 151.022 20.3399 151.345 20.1524C151.673 19.9597 151.837 19.642 151.837 19.1993Z" fill="white"/>
<path d="M30.8122 14.0527C32.0115 12.7487 33.7076 11.9059 35.4755 11.7626C35.9067 11.743 36.3399 11.7462 36.7711 11.7639C38.524 11.9 40.2037 12.7336 41.3998 14.018C42.6129 15.2966 43.3222 17.0345 43.3569 18.7959C43.3654 19.6315 43.3582 20.4671 43.3602 21.3026C43.862 21.3026 44.3632 21.3026 44.8644 21.3026C44.8605 20.4252 44.873 19.5477 44.8579 18.671C44.8069 17.2242 44.2899 15.8116 43.438 14.6462C44.9017 15.7239 45.9271 17.3728 46.2464 19.1624C46.3838 19.8671 46.3668 20.5881 46.3648 21.3026C49.2824 21.3033 52.2001 21.3026 55.1184 21.3026C55.1203 29.5785 55.121 37.8538 55.119 46.1297C55.1177 46.6329 55.1694 47.155 54.9908 47.6379C54.6505 48.6704 53.6429 49.4707 52.5449 49.4883C41.5961 49.4851 30.6473 49.487 19.6991 49.487C18.3499 49.4687 17.1499 48.2582 17.125 46.9123C17.1263 38.3759 17.1243 29.839 17.1257 21.3026C21.0457 21.3026 24.9651 21.3026 28.8845 21.3026C28.8865 20.4684 28.8799 19.6341 28.8878 18.8005C28.9199 17.0535 29.618 15.3287 30.8122 14.0527ZM35.1948 13.3055C33.896 13.5136 32.679 14.1895 31.8126 15.1795C30.9123 16.1976 30.3947 17.5449 30.3862 18.9039C30.3829 19.7035 30.3855 20.5031 30.3849 21.3026C30.8861 21.3026 31.388 21.3026 31.8892 21.3026C31.8905 20.8754 31.882 20.4481 31.9036 20.0208C31.9546 19.1578 32.1633 18.3045 32.5154 17.5148C33.1887 15.8966 34.7558 14.7476 36.4492 14.3923C37.5838 14.1561 38.8028 14.2608 39.8562 14.7561C39.5055 14.7358 39.1555 14.6992 38.8041 14.7254C37.4372 14.7973 36.1043 15.3817 35.1261 16.3409C34.0818 17.3486 33.4478 18.7671 33.3948 20.2178C33.3843 20.579 33.3915 20.9408 33.3896 21.3026C36.213 21.3026 39.0364 21.3026 41.8604 21.3026C41.8604 20.5678 41.8604 19.833 41.8604 19.0989C41.8617 18.1894 41.6491 17.2799 41.2401 16.4678C40.6441 15.2724 39.6259 14.2942 38.4076 13.7472C37.4091 13.2983 36.2784 13.1197 35.1948 13.3055ZM28.1478 27.4271C28.1484 29.8815 28.1464 32.3352 28.1491 34.7896C30.6021 34.7876 33.0558 34.7889 35.5096 34.7883C35.5096 32.3352 35.5083 29.8815 35.5102 27.4278C33.0558 27.4258 30.6021 27.4278 28.1478 27.4271ZM36.7345 27.4284C36.7384 29.8815 36.7358 32.3352 36.7358 34.7883C39.1888 34.7896 41.6426 34.787 44.0956 34.7902C44.0995 32.3352 44.0969 29.8808 44.0969 27.4265C41.6425 27.4284 39.1888 27.4245 36.7345 27.4284ZM28.1491 36.0145C28.1471 38.4682 28.1491 40.9226 28.1478 43.3763C30.6021 43.3756 33.0565 43.3789 35.5102 43.375C35.5083 40.9219 35.5102 38.4682 35.5096 36.0151C33.0558 36.0145 30.6021 36.0158 28.1491 36.0145ZM36.7358 36.0151C36.7358 38.4689 36.7371 40.9219 36.7351 43.3756C39.1895 43.3783 41.6432 43.3763 44.0976 43.3763C44.0969 40.9226 44.0995 38.4682 44.0963 36.0145C41.6432 36.0164 39.1895 36.0145 36.7358 36.0151Z" fill="white"/>
</svg>
