<svg width="48" height="48" viewBox="0 0 48 48" fill="none" xmlns="http://www.w3.org/2000/svg">
<g id="Uber">
<g id="Uber_2">
<rect id="Rectangle" width="48" height="48" rx="24" fill="black"/>
<path id="Vector" d="M9.58491 25.1472C9.58491 26.8529 10.7019 27.9548 12.1811 27.9548C13.6453 27.9548 14.7774 26.8227 14.7774 25.1472V18.6265H16.3623V29.1925H14.7925V28.2114C14.083 28.951 13.1019 29.3736 12 29.3736C9.73585 29.3736 8 27.7284 8 25.2378V18.6265H9.58491V25.1472ZM17.917 29.1925V18.6265H19.4415V22.4755C19.7971 22.1114 20.2221 21.8222 20.6913 21.6252C21.1606 21.4281 21.6646 21.3272 22.1736 21.3284C24.4377 21.3284 26.2189 23.1246 26.2189 25.3585C26.2189 27.5774 24.4377 29.3736 22.1736 29.3736C21.1019 29.3736 20.1208 28.9359 19.4264 28.2265V29.1925H17.917ZM19.4113 25.3585C19.4113 26.8378 20.5887 28.0302 22.0679 28.0302C23.517 28.0302 24.7094 26.8378 24.7094 25.3585C24.7094 23.8642 23.517 22.6868 22.0679 22.6868C20.6038 22.6868 19.4113 23.8642 19.4113 25.3585ZM27.1245 25.3434C27.1245 23.1699 28.8302 21.3434 31.0792 21.3434C33.2981 21.3434 34.9283 23.0491 34.9283 25.3434V25.8416H28.6642C28.8755 27.0944 29.917 28.0302 31.2151 28.0302C32.1057 28.0302 32.8604 27.668 33.434 26.8982L34.5358 27.7133C33.766 28.7397 32.6189 29.3585 31.2151 29.3585C28.9057 29.3585 27.1245 27.6378 27.1245 25.3434ZM31.0491 22.6717C29.917 22.6717 28.966 23.4567 28.6943 24.634H33.3887C33.1321 23.4567 32.1811 22.6717 31.0491 22.6717ZM40 22.8529H39.366C38.3698 22.8529 37.6453 23.6227 37.6453 24.8151V29.1925H36.1208V21.4944H37.6302V22.4453C38.0075 21.8265 38.6264 21.434 39.4717 21.434H40V22.8529Z" fill="white"/>
</g>
</g>
</svg>
